<?xml version="1.0" encoding="iso-8859-1"?>
<!-- Generator: Adobe Illustrator 19.1.1, SVG Export Plug-In . SVG Version: 6.00 Build 0)  -->
<svg version="1.1"  xmlns="http://www.w3.org/2000/svg" xmlns:xlink="http://www.w3.org/1999/xlink" x="0px" y="0px"
	 viewBox="0 0 48 48" style="enable-background:new 0 0 48 48;" xml:space="preserve">
<path style="fill:none;stroke:#7986CB;stroke-width:2;stroke-miterlimit:10;" d="M28.973,25h-10c-1.65,0-3-1.35-3-3V12
	c0-1.65,1.35-3,3-3h10c1.65,0,3,1.35,3,3v10C31.973,23.65,30.623,25,28.973,25z"/>
<path style="fill:#116618;" d="M30.973,46h-14c0-1.875,1.127-2.216,2-3v-2c0,0,0.933-2,2-2c0,0,0-1.511,0-2c0-1.353-8-5.996-8-18
	c0-4.622,2.22-6,5-6h12c2.78,0,5,1.378,5,6c0,12.004-8,16.647-8,18c0,0.489,0,2,0,2c1.059,0,2,2,2,2v2
	C29.846,43.766,30.973,44.188,30.973,46z"/>
<path style="fill:#116618;" d="M15.973,3l0.772,2.316C16.882,5.725,17.264,6,17.694,6h12.558c0.43,0,0.813-0.275,0.949-0.684
	L31.973,3H15.973z"/>
<path style="fill:#116618;" d="M28.973,43h-10v-2h10V43z M26.973,37h-6v2h6V37z M28.973,25h-10v2h10V25z M27.973,20
	c0,2.209-1.791,4-4,4s-4-1.791-4-4s1.791-4,4-4S27.973,17.791,27.973,20z M25.973,20c0-1.105-0.895-2-2-2s-2,0.895-2,2s0.895,2,2,2
	S25.973,21.105,25.973,20z M19.973,13h8l-1-7h-6L19.973,13z M32.973,3V2h-18v1c0,0.552,0.448,1,1,1h16
	C32.526,4,32.973,3.552,32.973,3z"/>
</svg>
