<svg id="Layer_1" data-name="Layer 1" xmlns="http://www.w3.org/2000/svg" viewBox="0 0 400 400"><defs><style>.cls-1{fill:#116618;}</style></defs><g id="NewGroup0-81"><path class="cls-1" d="M288.76,163.31h33.63v14.47H303.23v44.44h19.16v14.47H288.76V163.31Zm-80,72.55v32.2H194.32v-32.2a38.95,38.95,0,0,1,0-76.54v-31h14.47v31a38.95,38.95,0,0,1,0,76.54Zm-98.43.83H76.72V222.22H95.89V177.78H76.72V163.31h33.64v73.38Zm137.1-118.07H67.09V281H336V118.62Z"/><path class="cls-1" d="M201.56,170.94a27.23,27.23,0,1,0,27.23,27.23,27.23,27.23,0,0,0-27.23-27.23Z"/><path class="cls-1" d="M49.18,103.66H350.82V296.34H49.18V103.66ZM27.57,318H372.43V82H27.57V318Z"/></g></svg>