<?xml version="1.0"?>
<svg xmlns="http://www.w3.org/2000/svg" version="1" viewBox="0 0 24 24" enable-background="new 0 0 24 24">
    <path style="fill:#116618" d="M 11.90625 2 C 9.20625 2 7 4.09375 7 6.59375 L 7 6.8125 L 7.1875 6.8125 C 7.4875 6.8125 7.8 6.9875 8 7.1875 C 7.9 5.5875 8.5 5.09375 8.5 5.09375 C 9.8 4.89375 10.19375 6 10.59375 7 C 10.99375 6.3 11.8125 5.8125 12.8125 5.8125 C 13.8125 5.8125 14.6 6.29375 15 7.09375 C 15.4 5.99375 15.79375 5.19375 16.59375 5.09375 C 15.89375 3.29375 14.10625 2 11.90625 2 z M 9 5.8125 C 8.1 8.8125 11.9 14.39375 9.5 19.59375 C 9.4 19.89375 8.6875 20.89375 8.6875 21.09375 C 8.6875 21.49375 10.2 21.90625 12 21.90625 C 13.8 21.90625 15.3125 21.59375 15.3125 21.09375 C 15.3125 20.79375 14.6 19.89375 14.5 19.59375 C 14.1 19.19375 13.5875 17.9875 13.6875 16.6875 C 13.6875 16.4875 12.3 18.70625 12 19.90625 C 11.9 14.70625 16.7 14.10625 17 5.90625 C 15.9 5.20625 15.2125 10.40625 13.3125 10.40625 L 12.59375 10.40625 C 9.89375 10.40625 9.9 5.6125 9 5.8125 z M 12.6875 6.6875 C 11.7875 6.6875 11.09375 7.3875 11.09375 8.1875 C 11.09375 8.9875 11.7875 9.6875 12.6875 9.6875 C 13.5875 9.6875 14.3125 9.0875 14.3125 8.1875 C 14.3125 7.3875 13.5875 6.6875 12.6875 6.6875 z M 7.09375 7.59375 C 7.49375 9.19375 8.7125 11.5125 9.3125 18.3125 C 9.3125 18.4125 9.6875 16.0875 9.6875 14.6875 C 9.4875 13.7875 8.9 11.10625 8.5 9.40625 C 8.1 8.50625 7.29375 7.39375 7.09375 7.59375 z"/>
</svg>
