<svg id="Layer_2" data-name="Layer 2" xmlns="http://www.w3.org/2000/svg" viewBox="0 0 400 400"><defs><style>.cls-1{fill:#454242;}</style></defs><g id="NewGroup0-70"><polygon class="cls-1" points="29.62 271.45 46.66 271.45 46.66 103.17 353.34 103.17 353.34 271.45 370.38 271.45 370.38 85.91 29.62 85.91 29.62 271.45 29.62 271.45"/><path class="cls-1" d="M311.17,246.21l10.1,10.11v5.33H295.72l15.45-15.44Zm-17.09-26.44,18.53-18.53,8.66,8.67v16.84l-10.1,10.11-17.09-17.09ZM274.4,200.1l18.53-18.54,15,15L289.41,215.1l-15-15Zm-24.33-24.34,18.53-18.53,19.66,19.66-18.53,18.53-19.66-19.66Zm-23.21-23.2,17.21-17.21h2.65l17.2,17.21-18.53,18.53-18.53-18.53Zm-17.2-17.21h25.06l-12.53,12.53-12.53-12.53Zm71.47,0L268.6,147.88l-12.53-12.53Zm12,0,18.33,18.33-18.53,18.54-19.66-19.66,17.21-17.21Zm28.14,0v8.52L316.14,149l-13.66-13.66Zm0,18.8-.46-.47.46-.46v.93Zm0,29.08-8.66,8.67-15-15,18.53-18.53,5.13,5.14v19.73Zm0,17.33-4-4,4-4v8Zm0,46.41-5.43-5.44,5.43-5.43V247ZM175.78,147.88l-12.53-12.53h25.06l-12.53,12.53Zm-23.21,23.21L134,152.56l17.21-17.21h2.65l17.2,17.21-18.53,18.53Zm-24.33,24.33-18.53-18.53,19.66-19.66,18.53,18.53-19.66,19.66ZM108.56,215.1,90,196.57l15-15,18.54,18.54-15,15ZM86.8,236.86l-8.07-8.08V207.87l6.62-6.63,18.54,18.53L86.8,236.86Zm15.45,24.79H78.73v-7.36l8.07-8.08,15.45,15.44ZM78.73,238.13l3.4,3.4-3.4,3.41v-6.81Zm0-43.52,2,2-2,2v-3.91Zm0-33.15,3.1-3.1,18.53,18.53-15,15-6.62-6.63V161.46Zm0-26.11H95.49L81.83,149l-3.1-3.1V135.35Zm28.76,0,17.2,17.21L105,172.22,86.5,153.68l18.34-18.33Zm34.41,0-12.53,12.53-12.53-12.53Zm133.81,136.1h59V121.39H65.25V271.45h59a78.28,78.28,0,0,1-2.4-9.8h-4.12l3.57-3.57a80.19,80.19,0,0,1-.66-8.69L110,260.06,91.48,241.53l17.08-17.08,12.78,12.78a79.12,79.12,0,0,1,1.45-7.9l-9.55-9.56,15-15,3.1,3.1c1.14-2,2.35-3.86,3.65-5.7l-2.07-2.07,19.65-19.66,2.1,2.09q2.78-1.93,5.71-3.63l-3.13-3.14,18.53-18.53,12,12a79.35,79.35,0,0,1,8.51-.85l-15.85-15.84,17.21-17.21h2.65l17.2,17.21-15.77,15.77a83,83,0,0,1,8.69.66l11.76-11.76,18.53,18.53-2.4,2.41c2,1.1,3.92,2.28,5.8,3.54l1.27-1.27,19.66,19.66-.89.88q2,2.73,3.74,5.61l1.83-1.82,15,15-7.92,7.93a78.8,78.8,0,0,1,1.6,7.75l11-11,17.08,17.08L288,260.06l-8.71-8.7a79.42,79.42,0,0,1-.84,8.5l1.79,1.79h-2.09a78.28,78.28,0,0,1-2.4,9.8Z"/><path class="cls-1" d="M196.3,168.4l2.68,2.69,2.76-2.76-1.74,0c-1.24,0-2.47,0-3.7.09Z"/><path class="cls-1" d="M242.61,256.2l-22-5.09-.26-.52-8.7-17.24-.54-1.08,9.2-21.24,12.59-5.33a55.69,55.69,0,0,1,5,4.48,54,54,0,0,1,15.68,36.44l-11,9.58Zm-5,30.61a54,54,0,0,1-14.82,10.44L210,291.7l-4.94-22.13.15-.14,15.31-15.19.15-.14,22.08,5.11,5.45,12.86a54.29,54.29,0,0,1-10.57,14.74Zm-33.26,7.66-7.06,8a54,54,0,0,1-16.7-3.34c-1.22-.55-2.45-1.06-3.7-1.52A54,54,0,0,1,161,286.49a55.55,55.55,0,0,1-4.44-5.07l3.75-8.67,1.68-3.88,21.32-9,1.07.55,17.17,8.84.52.27,4.91,22-2.62,3Zm-57.3-39.76-1.3.77a54.25,54.25,0,0,1,5.93-32.71L169.41,220l16.43,16.56-.07.38-3.26,20.07-22.13,9.38L147.1,254.71Zm27.24-54.37a54.28,54.28,0,0,1,32.75-5.65l-.78,1.29,11.61,13.38-9.55,22-20.1,3.1-.38.06L171.46,218l2.88-17.67Zm63.26-5.61a65.77,65.77,0,0,0-97.19,82.46,65.26,65.26,0,0,0,12.35,17.38l.06.07a65.58,65.58,0,0,0,46.27,19.45h.84A65.76,65.76,0,0,0,237.6,194.73Z"/></g></svg>