<svg id="Layer_4" data-name="Layer 4" xmlns="http://www.w3.org/2000/svg" viewBox="0 0 400 400"><defs><style>.cls-1{fill:#116618;}</style></defs><path class="cls-1" d="M204,332c43.05,0,75.29-4.55,125.28-20.07.13-1.81.16-3.77.15-6.43-.22-44.85-26.85-72.13-73.35-87.6-13.58,7.6-39.42,14-56.05,14s-42.47-6.4-56.05-14c-46.5,15.47-73.35,42.75-73.35,87.6,0,2.84.11,5,.28,6.87C119.1,327.45,158.14,332,204,332Z"/><path class="cls-1" d="M200,68c-38.8,0-70.36,32-70.36,71.25S161.2,210.49,200,210.49s70.35-32,70.35-71.24S238.79,68,200,68Z"/></svg>